<mxfile host="app.diagrams.net" modified="2023-08-01T14:00:12.117Z" agent="Mozilla/5.0 (Windows NT 10.0; Win64; x64) AppleWebKit/537.36 (KHTML, like Gecko) Chrome/115.0.0.0 Safari/537.36" etag="OqFmpHDaIg4LncsZpp9f" version="21.6.6" type="device">
  <diagram name="Page-1" id="4V1rqxsEy0uTXA404iLC">
    <mxGraphModel dx="5570" dy="2600" grid="0" gridSize="10" guides="1" tooltips="1" connect="1" arrows="1" fold="1" page="0" pageScale="1" pageWidth="827" pageHeight="1169" math="0" shadow="0">
      <root>
        <mxCell id="0" />
        <mxCell id="1" parent="0" />
        <mxCell id="F71LygZBP5IlNCUUIRIO-47" style="edgeStyle=none;curved=1;rounded=0;orthogonalLoop=1;jettySize=auto;html=1;fontSize=12;startSize=8;endSize=8;" edge="1" parent="1" source="F71LygZBP5IlNCUUIRIO-1" target="F71LygZBP5IlNCUUIRIO-41">
          <mxGeometry relative="1" as="geometry" />
        </mxCell>
        <mxCell id="F71LygZBP5IlNCUUIRIO-48" style="edgeStyle=none;curved=1;rounded=0;orthogonalLoop=1;jettySize=auto;html=1;fontSize=12;startSize=8;endSize=8;" edge="1" parent="1" source="F71LygZBP5IlNCUUIRIO-1">
          <mxGeometry relative="1" as="geometry">
            <mxPoint x="802" y="235.3945000000001" as="targetPoint" />
          </mxGeometry>
        </mxCell>
        <mxCell id="F71LygZBP5IlNCUUIRIO-1" value="" style="strokeWidth=1;shadow=0;dashed=0;align=center;html=1;shape=mxgraph.mockup.containers.browserWindow;rSize=0;strokeColor=#666666;strokeColor2=#008cff;strokeColor3=#c4c4c4;mainText=,;recursiveResize=0;fontSize=16;" vertex="1" parent="1">
          <mxGeometry x="-198" y="-87" width="842" height="650" as="geometry" />
        </mxCell>
        <mxCell id="F71LygZBP5IlNCUUIRIO-2" value="Page 1" style="strokeWidth=1;shadow=0;dashed=0;align=center;html=1;shape=mxgraph.mockup.containers.anchor;fontSize=17;fontColor=#666666;align=left;whiteSpace=wrap;" vertex="1" parent="F71LygZBP5IlNCUUIRIO-1">
          <mxGeometry x="60" y="12" width="110" height="26" as="geometry" />
        </mxCell>
        <mxCell id="F71LygZBP5IlNCUUIRIO-3" value="https://www.draw.io" style="strokeWidth=1;shadow=0;dashed=0;align=center;html=1;shape=mxgraph.mockup.containers.anchor;rSize=0;fontSize=17;fontColor=#666666;align=left;" vertex="1" parent="F71LygZBP5IlNCUUIRIO-1">
          <mxGeometry x="130" y="60" width="250" height="26" as="geometry" />
        </mxCell>
        <mxCell id="F71LygZBP5IlNCUUIRIO-4" value="" style="strokeWidth=1;shadow=0;dashed=0;align=center;html=1;shape=mxgraph.mockup.forms.rrect;rSize=0;strokeColor=#999999;fillColor=#ffffff;fontSize=16;" vertex="1" parent="F71LygZBP5IlNCUUIRIO-1">
          <mxGeometry x="311" y="230" width="200" height="300" as="geometry" />
        </mxCell>
        <mxCell id="F71LygZBP5IlNCUUIRIO-5" value="Sign In" style="strokeWidth=1;shadow=0;dashed=0;align=center;html=1;shape=mxgraph.mockup.forms.anchor;fontSize=12;fontColor=#666666;align=left;resizeWidth=1;spacingLeft=0;" vertex="1" parent="F71LygZBP5IlNCUUIRIO-4">
          <mxGeometry width="100" height="20" relative="1" as="geometry">
            <mxPoint x="10" y="10" as="offset" />
          </mxGeometry>
        </mxCell>
        <mxCell id="F71LygZBP5IlNCUUIRIO-6" value="" style="shape=line;strokeColor=#ddeeff;strokeWidth=2;html=1;resizeWidth=1;fontSize=16;" vertex="1" parent="F71LygZBP5IlNCUUIRIO-4">
          <mxGeometry width="180" height="10" relative="1" as="geometry">
            <mxPoint x="10" y="30" as="offset" />
          </mxGeometry>
        </mxCell>
        <mxCell id="F71LygZBP5IlNCUUIRIO-7" value="User Name:" style="strokeWidth=1;shadow=0;dashed=0;align=center;html=1;shape=mxgraph.mockup.forms.anchor;fontSize=12;fontColor=#666666;align=left;resizeWidth=1;spacingLeft=0;" vertex="1" parent="F71LygZBP5IlNCUUIRIO-4">
          <mxGeometry width="100" height="20" relative="1" as="geometry">
            <mxPoint x="10" y="40" as="offset" />
          </mxGeometry>
        </mxCell>
        <mxCell id="F71LygZBP5IlNCUUIRIO-8" value="johndoe" style="strokeWidth=1;shadow=0;dashed=0;align=center;html=1;shape=mxgraph.mockup.forms.rrect;rSize=0;strokeColor=#999999;fontColor=#666666;align=left;spacingLeft=5;resizeWidth=1;fontSize=16;" vertex="1" parent="F71LygZBP5IlNCUUIRIO-4">
          <mxGeometry width="150" height="25" relative="1" as="geometry">
            <mxPoint x="10" y="60" as="offset" />
          </mxGeometry>
        </mxCell>
        <mxCell id="F71LygZBP5IlNCUUIRIO-9" value="Password:" style="strokeWidth=1;shadow=0;dashed=0;align=center;html=1;shape=mxgraph.mockup.forms.anchor;fontSize=12;fontColor=#666666;align=left;resizeWidth=1;spacingLeft=0;" vertex="1" parent="F71LygZBP5IlNCUUIRIO-4">
          <mxGeometry width="100" height="20" relative="1" as="geometry">
            <mxPoint x="10" y="95" as="offset" />
          </mxGeometry>
        </mxCell>
        <mxCell id="F71LygZBP5IlNCUUIRIO-10" value="********" style="strokeWidth=1;shadow=0;dashed=0;align=center;html=1;shape=mxgraph.mockup.forms.rrect;rSize=0;strokeColor=#999999;fontColor=#666666;align=left;spacingLeft=5;resizeWidth=1;fontSize=16;" vertex="1" parent="F71LygZBP5IlNCUUIRIO-4">
          <mxGeometry width="150" height="25" relative="1" as="geometry">
            <mxPoint x="10" y="115" as="offset" />
          </mxGeometry>
        </mxCell>
        <mxCell id="F71LygZBP5IlNCUUIRIO-11" value="SIGN IN" style="strokeWidth=1;shadow=0;dashed=0;align=center;html=1;shape=mxgraph.mockup.forms.rrect;rSize=5;strokeColor=none;fontColor=#ffffff;fillColor=#66bbff;fontSize=16;fontStyle=1;" vertex="1" parent="F71LygZBP5IlNCUUIRIO-4">
          <mxGeometry y="1" width="80" height="30" relative="1" as="geometry">
            <mxPoint x="20" y="-150" as="offset" />
          </mxGeometry>
        </mxCell>
        <mxCell id="F71LygZBP5IlNCUUIRIO-12" value="Forgot Password?" style="strokeWidth=1;shadow=0;dashed=0;align=center;html=1;shape=mxgraph.mockup.forms.anchor;fontSize=12;fontColor=#9999ff;align=left;spacingLeft=0;fontStyle=4;resizeWidth=1;" vertex="1" parent="F71LygZBP5IlNCUUIRIO-4">
          <mxGeometry y="1" width="150" height="20" relative="1" as="geometry">
            <mxPoint x="10" y="-110" as="offset" />
          </mxGeometry>
        </mxCell>
        <mxCell id="F71LygZBP5IlNCUUIRIO-13" value="" style="shape=line;strokeColor=#ddeeff;strokeWidth=2;html=1;resizeWidth=1;fontSize=16;" vertex="1" parent="F71LygZBP5IlNCUUIRIO-4">
          <mxGeometry y="1" width="180" height="10" relative="1" as="geometry">
            <mxPoint x="10" y="-90" as="offset" />
          </mxGeometry>
        </mxCell>
        <mxCell id="F71LygZBP5IlNCUUIRIO-14" value="New User" style="strokeWidth=1;shadow=0;dashed=0;align=center;html=1;shape=mxgraph.mockup.forms.anchor;fontSize=12;fontColor=#666666;align=left;spacingLeft=0;resizeWidth=1;" vertex="1" parent="F71LygZBP5IlNCUUIRIO-4">
          <mxGeometry y="1" width="150" height="20" relative="1" as="geometry">
            <mxPoint x="10" y="-70" as="offset" />
          </mxGeometry>
        </mxCell>
        <mxCell id="F71LygZBP5IlNCUUIRIO-15" value="SIGN UP" style="strokeWidth=1;shadow=0;dashed=0;align=center;html=1;shape=mxgraph.mockup.forms.rrect;rSize=5;strokeColor=none;fontColor=#ffffff;fillColor=#66bbff;fontSize=16;fontStyle=1;" vertex="1" parent="F71LygZBP5IlNCUUIRIO-4">
          <mxGeometry y="1" width="80" height="30" relative="1" as="geometry">
            <mxPoint x="20" y="-50" as="offset" />
          </mxGeometry>
        </mxCell>
        <mxCell id="F71LygZBP5IlNCUUIRIO-16" value="" style="verticalLabelPosition=bottom;shadow=0;dashed=0;align=center;html=1;verticalAlign=top;strokeWidth=1;shape=mxgraph.mockup.graphics.simpleIcon;strokeColor=#999999;fontSize=16;" vertex="1" parent="F71LygZBP5IlNCUUIRIO-1">
          <mxGeometry x="511" y="118" width="111" height="94" as="geometry" />
        </mxCell>
        <mxCell id="F71LygZBP5IlNCUUIRIO-17" value="HEADING" style="text;html=1;strokeColor=none;fillColor=none;align=center;verticalAlign=middle;whiteSpace=wrap;rounded=0;fontSize=16;" vertex="1" parent="F71LygZBP5IlNCUUIRIO-1">
          <mxGeometry x="88" y="150" width="329" height="30" as="geometry" />
        </mxCell>
        <mxCell id="F71LygZBP5IlNCUUIRIO-53" style="edgeStyle=none;curved=1;rounded=0;orthogonalLoop=1;jettySize=auto;html=1;fontSize=12;startSize=8;endSize=8;" edge="1" parent="1" target="F71LygZBP5IlNCUUIRIO-41">
          <mxGeometry relative="1" as="geometry">
            <mxPoint x="224.24316005471974" y="1344" as="sourcePoint" />
          </mxGeometry>
        </mxCell>
        <mxCell id="F71LygZBP5IlNCUUIRIO-49" style="edgeStyle=none;curved=1;rounded=0;orthogonalLoop=1;jettySize=auto;html=1;fontSize=12;startSize=8;endSize=8;" edge="1" parent="1" source="F71LygZBP5IlNCUUIRIO-41">
          <mxGeometry relative="1" as="geometry">
            <mxPoint x="223" y="1347" as="targetPoint" />
          </mxGeometry>
        </mxCell>
        <mxCell id="F71LygZBP5IlNCUUIRIO-390" style="edgeStyle=none;curved=1;rounded=0;orthogonalLoop=1;jettySize=auto;html=1;fontSize=12;startSize=8;endSize=8;" edge="1" parent="1" source="F71LygZBP5IlNCUUIRIO-41" target="F71LygZBP5IlNCUUIRIO-1">
          <mxGeometry relative="1" as="geometry" />
        </mxCell>
        <mxCell id="F71LygZBP5IlNCUUIRIO-41" value="" style="strokeWidth=1;shadow=0;dashed=0;align=center;html=1;shape=mxgraph.mockup.containers.browserWindow;rSize=0;strokeColor=#666666;strokeColor2=#008cff;strokeColor3=#c4c4c4;mainText=,;recursiveResize=0;fontSize=16;" vertex="1" parent="1">
          <mxGeometry x="-194" y="613" width="847" height="653" as="geometry" />
        </mxCell>
        <mxCell id="F71LygZBP5IlNCUUIRIO-42" value="Page 1" style="strokeWidth=1;shadow=0;dashed=0;align=center;html=1;shape=mxgraph.mockup.containers.anchor;fontSize=17;fontColor=#666666;align=left;whiteSpace=wrap;" vertex="1" parent="F71LygZBP5IlNCUUIRIO-41">
          <mxGeometry x="60" y="12" width="110" height="26" as="geometry" />
        </mxCell>
        <mxCell id="F71LygZBP5IlNCUUIRIO-43" value="https://www.draw.io" style="strokeWidth=1;shadow=0;dashed=0;align=center;html=1;shape=mxgraph.mockup.containers.anchor;rSize=0;fontSize=17;fontColor=#666666;align=left;" vertex="1" parent="F71LygZBP5IlNCUUIRIO-41">
          <mxGeometry x="130" y="60" width="250" height="26" as="geometry" />
        </mxCell>
        <mxCell id="F71LygZBP5IlNCUUIRIO-54" value="Welcome&amp;nbsp; User name" style="text;html=1;strokeColor=none;fillColor=none;align=center;verticalAlign=middle;whiteSpace=wrap;rounded=0;fontSize=16;" vertex="1" parent="F71LygZBP5IlNCUUIRIO-41">
          <mxGeometry x="4" y="112" width="250" height="56" as="geometry" />
        </mxCell>
        <mxCell id="F71LygZBP5IlNCUUIRIO-55" value="Navbar" style="html=1;shadow=0;dashed=0;fillColor=#343A40;strokeColor=none;fontSize=16;fontColor=#ffffff;align=left;spacing=15;" vertex="1" parent="F71LygZBP5IlNCUUIRIO-41">
          <mxGeometry x="4" y="168" width="843" height="60" as="geometry" />
        </mxCell>
        <mxCell id="F71LygZBP5IlNCUUIRIO-56" value="Home" style="fillColor=none;strokeColor=none;fontSize=14;fontColor=#ffffff;align=center;" vertex="1" parent="F71LygZBP5IlNCUUIRIO-55">
          <mxGeometry width="70" height="40" relative="1" as="geometry">
            <mxPoint x="70" y="10" as="offset" />
          </mxGeometry>
        </mxCell>
        <mxCell id="F71LygZBP5IlNCUUIRIO-57" value="Create" style="fillColor=none;strokeColor=none;fontSize=14;fontColor=#9A9DA0;align=center;" vertex="1" parent="F71LygZBP5IlNCUUIRIO-55">
          <mxGeometry width="70" height="40" relative="1" as="geometry">
            <mxPoint x="140" y="10" as="offset" />
          </mxGeometry>
        </mxCell>
        <mxCell id="F71LygZBP5IlNCUUIRIO-58" value="Logout" style="fillColor=none;strokeColor=none;fontSize=14;fontColor=#9A9DA0;align=center;spacingRight=0;" vertex="1" parent="F71LygZBP5IlNCUUIRIO-55">
          <mxGeometry width="80" height="40" relative="1" as="geometry">
            <mxPoint x="210" y="10" as="offset" />
          </mxGeometry>
        </mxCell>
        <mxCell id="F71LygZBP5IlNCUUIRIO-66" value="Outstanding Tickets" style="swimlane;childLayout=stackLayout;resizeParent=1;resizeParentMax=0;horizontal=1;startSize=20;horizontalStack=0;html=1;fontSize=16;" vertex="1" parent="F71LygZBP5IlNCUUIRIO-41">
          <mxGeometry x="43" y="245" width="484" height="380" as="geometry" />
        </mxCell>
        <mxCell id="F71LygZBP5IlNCUUIRIO-67" value="Ticket 1" style="swimlane;startSize=20;horizontal=0;html=1;fontSize=16;" vertex="1" parent="F71LygZBP5IlNCUUIRIO-66">
          <mxGeometry y="20" width="484" height="120" as="geometry" />
        </mxCell>
        <mxCell id="F71LygZBP5IlNCUUIRIO-70" value="Customer" style="text;html=1;strokeColor=none;fillColor=none;align=center;verticalAlign=middle;whiteSpace=wrap;rounded=0;fontSize=16;" vertex="1" parent="F71LygZBP5IlNCUUIRIO-67">
          <mxGeometry x="24" y="7" width="97" height="30" as="geometry" />
        </mxCell>
        <mxCell id="F71LygZBP5IlNCUUIRIO-71" value="Decription" style="text;html=1;strokeColor=none;fillColor=none;align=center;verticalAlign=middle;whiteSpace=wrap;rounded=0;fontSize=16;" vertex="1" parent="F71LygZBP5IlNCUUIRIO-67">
          <mxGeometry x="24" y="45" width="120" height="30" as="geometry" />
        </mxCell>
        <mxCell id="F71LygZBP5IlNCUUIRIO-74" value="Complete" style="html=1;shadow=0;dashed=0;shape=mxgraph.bootstrap.rrect;rSize=5;strokeColor=none;strokeWidth=1;fillColor=#0085FC;fontColor=#FFFFFF;whiteSpace=wrap;align=center;verticalAlign=middle;spacingLeft=0;fontStyle=0;fontSize=16;spacing=5;" vertex="1" parent="F71LygZBP5IlNCUUIRIO-67">
          <mxGeometry x="382" y="5" width="98" height="25" as="geometry" />
        </mxCell>
        <mxCell id="F71LygZBP5IlNCUUIRIO-75" value="Edit" style="html=1;shadow=0;dashed=0;shape=mxgraph.bootstrap.rrect;rSize=5;strokeColor=none;strokeWidth=1;fillColor=#6C767D;fontColor=#FFFFFF;whiteSpace=wrap;align=center;verticalAlign=middle;spacingLeft=0;fontStyle=0;fontSize=16;spacing=5;" vertex="1" parent="F71LygZBP5IlNCUUIRIO-67">
          <mxGeometry x="382" y="40" width="98" height="24" as="geometry" />
        </mxCell>
        <mxCell id="F71LygZBP5IlNCUUIRIO-76" value="Ticket 2" style="swimlane;startSize=20;horizontal=0;html=1;fontSize=16;" vertex="1" parent="F71LygZBP5IlNCUUIRIO-66">
          <mxGeometry y="140" width="484" height="120" as="geometry" />
        </mxCell>
        <mxCell id="F71LygZBP5IlNCUUIRIO-77" value="Customer" style="text;html=1;strokeColor=none;fillColor=none;align=center;verticalAlign=middle;whiteSpace=wrap;rounded=0;fontSize=16;" vertex="1" parent="F71LygZBP5IlNCUUIRIO-76">
          <mxGeometry x="24" y="7" width="97" height="30" as="geometry" />
        </mxCell>
        <mxCell id="F71LygZBP5IlNCUUIRIO-78" value="Decription" style="text;html=1;strokeColor=none;fillColor=none;align=center;verticalAlign=middle;whiteSpace=wrap;rounded=0;fontSize=16;" vertex="1" parent="F71LygZBP5IlNCUUIRIO-76">
          <mxGeometry x="24" y="45" width="120" height="30" as="geometry" />
        </mxCell>
        <mxCell id="F71LygZBP5IlNCUUIRIO-79" value="Complete" style="html=1;shadow=0;dashed=0;shape=mxgraph.bootstrap.rrect;rSize=5;strokeColor=none;strokeWidth=1;fillColor=#0085FC;fontColor=#FFFFFF;whiteSpace=wrap;align=center;verticalAlign=middle;spacingLeft=0;fontStyle=0;fontSize=16;spacing=5;" vertex="1" parent="F71LygZBP5IlNCUUIRIO-76">
          <mxGeometry x="382" y="5" width="98" height="25" as="geometry" />
        </mxCell>
        <mxCell id="F71LygZBP5IlNCUUIRIO-80" value="Edit" style="html=1;shadow=0;dashed=0;shape=mxgraph.bootstrap.rrect;rSize=5;strokeColor=none;strokeWidth=1;fillColor=#6C767D;fontColor=#FFFFFF;whiteSpace=wrap;align=center;verticalAlign=middle;spacingLeft=0;fontStyle=0;fontSize=16;spacing=5;" vertex="1" parent="F71LygZBP5IlNCUUIRIO-76">
          <mxGeometry x="382" y="40" width="98" height="24" as="geometry" />
        </mxCell>
        <mxCell id="F71LygZBP5IlNCUUIRIO-81" value="Ticket 3" style="swimlane;startSize=20;horizontal=0;html=1;fontSize=16;" vertex="1" parent="F71LygZBP5IlNCUUIRIO-66">
          <mxGeometry y="260" width="484" height="120" as="geometry" />
        </mxCell>
        <mxCell id="F71LygZBP5IlNCUUIRIO-82" value="Customer" style="text;html=1;strokeColor=none;fillColor=none;align=center;verticalAlign=middle;whiteSpace=wrap;rounded=0;fontSize=16;" vertex="1" parent="F71LygZBP5IlNCUUIRIO-81">
          <mxGeometry x="24" y="7" width="97" height="30" as="geometry" />
        </mxCell>
        <mxCell id="F71LygZBP5IlNCUUIRIO-83" value="Decription" style="text;html=1;strokeColor=none;fillColor=none;align=center;verticalAlign=middle;whiteSpace=wrap;rounded=0;fontSize=16;" vertex="1" parent="F71LygZBP5IlNCUUIRIO-81">
          <mxGeometry x="24" y="45" width="120" height="30" as="geometry" />
        </mxCell>
        <mxCell id="F71LygZBP5IlNCUUIRIO-84" value="Complete" style="html=1;shadow=0;dashed=0;shape=mxgraph.bootstrap.rrect;rSize=5;strokeColor=none;strokeWidth=1;fillColor=#0085FC;fontColor=#FFFFFF;whiteSpace=wrap;align=center;verticalAlign=middle;spacingLeft=0;fontStyle=0;fontSize=16;spacing=5;" vertex="1" parent="F71LygZBP5IlNCUUIRIO-81">
          <mxGeometry x="382" y="5" width="98" height="25" as="geometry" />
        </mxCell>
        <mxCell id="F71LygZBP5IlNCUUIRIO-85" value="Edit" style="html=1;shadow=0;dashed=0;shape=mxgraph.bootstrap.rrect;rSize=5;strokeColor=none;strokeWidth=1;fillColor=#6C767D;fontColor=#FFFFFF;whiteSpace=wrap;align=center;verticalAlign=middle;spacingLeft=0;fontStyle=0;fontSize=16;spacing=5;" vertex="1" parent="F71LygZBP5IlNCUUIRIO-81">
          <mxGeometry x="382" y="40" width="98" height="24" as="geometry" />
        </mxCell>
        <mxCell id="F71LygZBP5IlNCUUIRIO-86" value="" style="strokeWidth=1;shadow=0;dashed=0;align=center;html=1;shape=mxgraph.mockup.containers.browserWindow;rSize=0;strokeColor=#666666;strokeColor2=#008cff;strokeColor3=#c4c4c4;mainText=,;recursiveResize=0;fontSize=16;" vertex="1" parent="1">
          <mxGeometry x="-190" y="1349" width="847" height="858" as="geometry" />
        </mxCell>
        <mxCell id="F71LygZBP5IlNCUUIRIO-87" value="Page 1" style="strokeWidth=1;shadow=0;dashed=0;align=center;html=1;shape=mxgraph.mockup.containers.anchor;fontSize=17;fontColor=#666666;align=left;whiteSpace=wrap;" vertex="1" parent="F71LygZBP5IlNCUUIRIO-86">
          <mxGeometry x="60" y="12" width="110" height="26" as="geometry" />
        </mxCell>
        <mxCell id="F71LygZBP5IlNCUUIRIO-88" value="https://www.draw.io" style="strokeWidth=1;shadow=0;dashed=0;align=center;html=1;shape=mxgraph.mockup.containers.anchor;rSize=0;fontSize=17;fontColor=#666666;align=left;" vertex="1" parent="F71LygZBP5IlNCUUIRIO-86">
          <mxGeometry x="130" y="60" width="250" height="26" as="geometry" />
        </mxCell>
        <mxCell id="F71LygZBP5IlNCUUIRIO-89" value="Welcome&amp;nbsp; User name" style="text;html=1;strokeColor=none;fillColor=none;align=center;verticalAlign=middle;whiteSpace=wrap;rounded=0;fontSize=16;" vertex="1" parent="F71LygZBP5IlNCUUIRIO-86">
          <mxGeometry x="4" y="112" width="250" height="56" as="geometry" />
        </mxCell>
        <mxCell id="F71LygZBP5IlNCUUIRIO-90" value="Navbar" style="html=1;shadow=0;dashed=0;fillColor=#343A40;strokeColor=none;fontSize=16;fontColor=#ffffff;align=left;spacing=15;" vertex="1" parent="F71LygZBP5IlNCUUIRIO-86">
          <mxGeometry x="4" y="168" width="843" height="60" as="geometry" />
        </mxCell>
        <mxCell id="F71LygZBP5IlNCUUIRIO-91" value="Create" style="fillColor=none;strokeColor=none;fontSize=14;fontColor=#ffffff;align=center;" vertex="1" parent="F71LygZBP5IlNCUUIRIO-90">
          <mxGeometry width="70" height="40" relative="1" as="geometry">
            <mxPoint x="154" y="10" as="offset" />
          </mxGeometry>
        </mxCell>
        <mxCell id="F71LygZBP5IlNCUUIRIO-92" value="Home" style="fillColor=none;strokeColor=none;fontSize=14;fontColor=#9A9DA0;align=center;" vertex="1" parent="F71LygZBP5IlNCUUIRIO-90">
          <mxGeometry width="70" height="40" relative="1" as="geometry">
            <mxPoint x="87" y="10" as="offset" />
          </mxGeometry>
        </mxCell>
        <mxCell id="F71LygZBP5IlNCUUIRIO-93" value="Logout" style="fillColor=none;strokeColor=none;fontSize=14;fontColor=#9A9DA0;align=center;spacingRight=0;" vertex="1" parent="F71LygZBP5IlNCUUIRIO-90">
          <mxGeometry width="80" height="40" relative="1" as="geometry">
            <mxPoint x="210" y="10" as="offset" />
          </mxGeometry>
        </mxCell>
        <mxCell id="F71LygZBP5IlNCUUIRIO-176" value="Add new Ticket" style="html=1;shadow=0;dashed=0;shape=mxgraph.bootstrap.rrect;rSize=5;html=1;strokeColor=#C8C8C8;fillColor=#ffffff;whiteSpace=wrap;verticalAlign=top;align=left;fontSize=18;spacing=15;spacingTop=-5;" vertex="1" parent="F71LygZBP5IlNCUUIRIO-86">
          <mxGeometry x="225.5" y="248" width="400" height="573" as="geometry" />
        </mxCell>
        <mxCell id="F71LygZBP5IlNCUUIRIO-177" value="" style="shape=line;strokeColor=#dddddd;resizeWidth=1;fontSize=16;" vertex="1" parent="F71LygZBP5IlNCUUIRIO-176">
          <mxGeometry width="400" height="10" relative="1" as="geometry">
            <mxPoint y="50" as="offset" />
          </mxGeometry>
        </mxCell>
        <mxCell id="F71LygZBP5IlNCUUIRIO-178" value="" style="html=1;shadow=0;dashed=0;shape=mxgraph.bootstrap.x;strokeColor=#868686;strokeWidth=2;fontSize=16;" vertex="1" parent="F71LygZBP5IlNCUUIRIO-176">
          <mxGeometry x="1" width="8" height="8" relative="1" as="geometry">
            <mxPoint x="-24" y="20" as="offset" />
          </mxGeometry>
        </mxCell>
        <mxCell id="F71LygZBP5IlNCUUIRIO-179" value="Customer" style="strokeColor=none;fillColor=none;resizeWidth=1;align=left;verticalAlign=top;spacing=10;fontSize=14;whiteSpace=wrap;html=1;" vertex="1" parent="F71LygZBP5IlNCUUIRIO-176">
          <mxGeometry width="400" height="40" relative="1" as="geometry">
            <mxPoint y="60" as="offset" />
          </mxGeometry>
        </mxCell>
        <mxCell id="F71LygZBP5IlNCUUIRIO-180" value="" style="html=1;shadow=0;dashed=0;shape=mxgraph.bootstrap.rrect;rSize=5;strokeColor=#CED4DA;fillColor=none;align=left;verticalAlign=middle;spacing=10;fontSize=14;whiteSpace=wrap;html=1;" vertex="1" parent="F71LygZBP5IlNCUUIRIO-176">
          <mxGeometry width="380" height="40" relative="1" as="geometry">
            <mxPoint x="10" y="100" as="offset" />
          </mxGeometry>
        </mxCell>
        <mxCell id="F71LygZBP5IlNCUUIRIO-181" value="Description" style="strokeColor=none;fillColor=none;resizeWidth=1;align=left;verticalAlign=top;spacing=10;fontSize=14;whiteSpace=wrap;html=1;" vertex="1" parent="F71LygZBP5IlNCUUIRIO-176">
          <mxGeometry width="400" height="40" relative="1" as="geometry">
            <mxPoint y="160" as="offset" />
          </mxGeometry>
        </mxCell>
        <mxCell id="F71LygZBP5IlNCUUIRIO-182" value="" style="html=1;shadow=0;dashed=0;shape=mxgraph.bootstrap.rrect;rSize=5;strokeColor=#CED4DA;fillColor=none;align=left;verticalAlign=middle;spacing=10;fontSize=14;whiteSpace=wrap;html=1;" vertex="1" parent="F71LygZBP5IlNCUUIRIO-176">
          <mxGeometry width="380" height="70" relative="1" as="geometry">
            <mxPoint x="10" y="200" as="offset" />
          </mxGeometry>
        </mxCell>
        <mxCell id="F71LygZBP5IlNCUUIRIO-184" value="ADD" style="html=1;shadow=0;dashed=0;shape=mxgraph.bootstrap.rrect;rSize=5;fillColor=#0085FC;strokeColor=none;fontColor=#FFFFFF;fontSize=14;" vertex="1" parent="F71LygZBP5IlNCUUIRIO-176">
          <mxGeometry x="1" y="1" width="110" height="40" relative="1" as="geometry">
            <mxPoint x="-130" y="-60" as="offset" />
          </mxGeometry>
        </mxCell>
        <mxCell id="F71LygZBP5IlNCUUIRIO-186" value="Assign Repair Tech" style="strokeColor=none;fillColor=none;resizeWidth=1;align=left;verticalAlign=top;spacing=10;fontSize=14;whiteSpace=wrap;html=1;" vertex="1" parent="F71LygZBP5IlNCUUIRIO-176">
          <mxGeometry width="400" height="40" relative="1" as="geometry">
            <mxPoint y="289" as="offset" />
          </mxGeometry>
        </mxCell>
        <mxCell id="F71LygZBP5IlNCUUIRIO-187" value="" style="strokeWidth=1;shadow=0;dashed=0;align=center;html=1;shape=mxgraph.mockup.forms.rrect;rSize=0;strokeColor=#999999;fillColor=#ffffff;recursiveResize=0;fontSize=16;" vertex="1" parent="F71LygZBP5IlNCUUIRIO-176">
          <mxGeometry x="89.5" y="334" width="221" height="120" as="geometry" />
        </mxCell>
        <mxCell id="F71LygZBP5IlNCUUIRIO-188" value="Tech 1" style="strokeWidth=1;shadow=0;dashed=0;align=center;html=1;shape=mxgraph.mockup.forms.rrect;rSize=0;fillColor=#eeeeee;strokeColor=#999999;gradientColor=#cccccc;align=left;spacingLeft=4;fontSize=17;fontColor=#666666;labelPosition=right;" vertex="1" parent="F71LygZBP5IlNCUUIRIO-187">
          <mxGeometry x="8" y="7.5" width="15" height="15" as="geometry" />
        </mxCell>
        <mxCell id="F71LygZBP5IlNCUUIRIO-189" value="Tech 2" style="strokeWidth=1;shadow=0;dashed=0;align=center;html=1;shape=mxgraph.mockup.forms.rrect;rSize=0;fillColor=#eeeeee;strokeColor=#999999;gradientColor=#cccccc;align=left;spacingLeft=4;fontSize=17;fontColor=#666666;labelPosition=right;" vertex="1" parent="F71LygZBP5IlNCUUIRIO-187">
          <mxGeometry x="8" y="37.5" width="15" height="15" as="geometry" />
        </mxCell>
        <mxCell id="F71LygZBP5IlNCUUIRIO-190" value="Tech 3" style="strokeWidth=1;shadow=0;dashed=0;align=center;html=1;shape=mxgraph.mockup.forms.checkbox;rSize=0;resizable=0;fillColor=#aaaaaa;strokeColor=#444444;gradientColor=#666666;align=left;spacingLeft=4;fontSize=17;fontColor=#008cff;labelPosition=right;" vertex="1" parent="F71LygZBP5IlNCUUIRIO-187">
          <mxGeometry x="8" y="67.5" width="15" height="15" as="geometry" />
        </mxCell>
        <mxCell id="F71LygZBP5IlNCUUIRIO-191" value="Tech 4" style="strokeWidth=1;shadow=0;dashed=0;align=center;html=1;shape=mxgraph.mockup.forms.rrect;rSize=0;fillColor=#eeeeee;strokeColor=#999999;gradientColor=#cccccc;align=left;spacingLeft=4;fontSize=17;fontColor=#666666;labelPosition=right;" vertex="1" parent="F71LygZBP5IlNCUUIRIO-187">
          <mxGeometry x="8" y="97.5" width="15" height="15" as="geometry" />
        </mxCell>
        <mxCell id="F71LygZBP5IlNCUUIRIO-194" value="Edit Page" style="strokeWidth=1;shadow=0;dashed=0;align=center;html=1;shape=mxgraph.mockup.containers.window;align=left;verticalAlign=top;spacingLeft=8;strokeColor2=#008cff;strokeColor3=#c4c4c4;fontColor=#666666;mainText=;fontSize=17;labelBackgroundColor=none;whiteSpace=wrap;" vertex="1" parent="1">
          <mxGeometry x="868" y="890" width="550" height="689" as="geometry" />
        </mxCell>
        <mxCell id="F71LygZBP5IlNCUUIRIO-195" style="edgeStyle=none;curved=1;rounded=0;orthogonalLoop=1;jettySize=auto;html=1;exitX=1;exitY=0.5;exitDx=0;exitDy=0;entryX=0.029;entryY=0.069;entryDx=0;entryDy=0;entryPerimeter=0;fontSize=12;startSize=8;endSize=8;" edge="1" parent="1" source="F71LygZBP5IlNCUUIRIO-67" target="F71LygZBP5IlNCUUIRIO-194">
          <mxGeometry relative="1" as="geometry" />
        </mxCell>
        <mxCell id="F71LygZBP5IlNCUUIRIO-196" value="Edit" style="html=1;shadow=0;dashed=0;shape=mxgraph.bootstrap.rrect;rSize=5;html=1;strokeColor=#C8C8C8;fillColor=#ffffff;whiteSpace=wrap;verticalAlign=top;align=left;fontSize=18;spacing=15;spacingTop=-5;" vertex="1" parent="1">
          <mxGeometry x="959" y="948" width="400" height="573" as="geometry" />
        </mxCell>
        <mxCell id="F71LygZBP5IlNCUUIRIO-197" value="" style="shape=line;strokeColor=#dddddd;resizeWidth=1;fontSize=16;" vertex="1" parent="F71LygZBP5IlNCUUIRIO-196">
          <mxGeometry width="400" height="10" relative="1" as="geometry">
            <mxPoint y="50" as="offset" />
          </mxGeometry>
        </mxCell>
        <mxCell id="F71LygZBP5IlNCUUIRIO-198" value="" style="html=1;shadow=0;dashed=0;shape=mxgraph.bootstrap.x;strokeColor=#868686;strokeWidth=2;fontSize=16;" vertex="1" parent="F71LygZBP5IlNCUUIRIO-196">
          <mxGeometry x="1" width="8" height="8" relative="1" as="geometry">
            <mxPoint x="-24" y="20" as="offset" />
          </mxGeometry>
        </mxCell>
        <mxCell id="F71LygZBP5IlNCUUIRIO-199" value="Customer" style="strokeColor=none;fillColor=none;resizeWidth=1;align=left;verticalAlign=top;spacing=10;fontSize=14;whiteSpace=wrap;html=1;" vertex="1" parent="F71LygZBP5IlNCUUIRIO-196">
          <mxGeometry width="400" height="40" relative="1" as="geometry">
            <mxPoint y="60" as="offset" />
          </mxGeometry>
        </mxCell>
        <mxCell id="F71LygZBP5IlNCUUIRIO-200" value="" style="html=1;shadow=0;dashed=0;shape=mxgraph.bootstrap.rrect;rSize=5;strokeColor=#CED4DA;fillColor=none;align=left;verticalAlign=middle;spacing=10;fontSize=14;whiteSpace=wrap;html=1;" vertex="1" parent="F71LygZBP5IlNCUUIRIO-196">
          <mxGeometry width="380" height="40" relative="1" as="geometry">
            <mxPoint x="10" y="100" as="offset" />
          </mxGeometry>
        </mxCell>
        <mxCell id="F71LygZBP5IlNCUUIRIO-201" value="Description" style="strokeColor=none;fillColor=none;resizeWidth=1;align=left;verticalAlign=top;spacing=10;fontSize=14;whiteSpace=wrap;html=1;" vertex="1" parent="F71LygZBP5IlNCUUIRIO-196">
          <mxGeometry width="400" height="40" relative="1" as="geometry">
            <mxPoint y="160" as="offset" />
          </mxGeometry>
        </mxCell>
        <mxCell id="F71LygZBP5IlNCUUIRIO-202" value="" style="html=1;shadow=0;dashed=0;shape=mxgraph.bootstrap.rrect;rSize=5;strokeColor=#CED4DA;fillColor=none;align=left;verticalAlign=middle;spacing=10;fontSize=14;whiteSpace=wrap;html=1;" vertex="1" parent="F71LygZBP5IlNCUUIRIO-196">
          <mxGeometry width="380" height="70" relative="1" as="geometry">
            <mxPoint x="10" y="200" as="offset" />
          </mxGeometry>
        </mxCell>
        <mxCell id="F71LygZBP5IlNCUUIRIO-203" value="Save" style="html=1;shadow=0;dashed=0;shape=mxgraph.bootstrap.rrect;rSize=5;fillColor=#0085FC;strokeColor=none;fontColor=#FFFFFF;fontSize=14;" vertex="1" parent="F71LygZBP5IlNCUUIRIO-196">
          <mxGeometry x="1" y="1" width="110" height="40" relative="1" as="geometry">
            <mxPoint x="-130" y="-60" as="offset" />
          </mxGeometry>
        </mxCell>
        <mxCell id="F71LygZBP5IlNCUUIRIO-204" value="Assign Repair Tech" style="strokeColor=none;fillColor=none;resizeWidth=1;align=left;verticalAlign=top;spacing=10;fontSize=14;whiteSpace=wrap;html=1;" vertex="1" parent="F71LygZBP5IlNCUUIRIO-196">
          <mxGeometry width="400" height="40" relative="1" as="geometry">
            <mxPoint y="289" as="offset" />
          </mxGeometry>
        </mxCell>
        <mxCell id="F71LygZBP5IlNCUUIRIO-205" value="" style="strokeWidth=1;shadow=0;dashed=0;align=center;html=1;shape=mxgraph.mockup.forms.rrect;rSize=0;strokeColor=#999999;fillColor=#ffffff;recursiveResize=0;fontSize=16;" vertex="1" parent="F71LygZBP5IlNCUUIRIO-196">
          <mxGeometry x="89.5" y="334" width="221" height="120" as="geometry" />
        </mxCell>
        <mxCell id="F71LygZBP5IlNCUUIRIO-206" value="Tech 1" style="strokeWidth=1;shadow=0;dashed=0;align=center;html=1;shape=mxgraph.mockup.forms.rrect;rSize=0;fillColor=#eeeeee;strokeColor=#999999;gradientColor=#cccccc;align=left;spacingLeft=4;fontSize=17;fontColor=#666666;labelPosition=right;" vertex="1" parent="F71LygZBP5IlNCUUIRIO-205">
          <mxGeometry x="8" y="7.5" width="15" height="15" as="geometry" />
        </mxCell>
        <mxCell id="F71LygZBP5IlNCUUIRIO-207" value="Tech 2" style="strokeWidth=1;shadow=0;dashed=0;align=center;html=1;shape=mxgraph.mockup.forms.rrect;rSize=0;fillColor=#eeeeee;strokeColor=#999999;gradientColor=#cccccc;align=left;spacingLeft=4;fontSize=17;fontColor=#666666;labelPosition=right;" vertex="1" parent="F71LygZBP5IlNCUUIRIO-205">
          <mxGeometry x="8" y="37.5" width="15" height="15" as="geometry" />
        </mxCell>
        <mxCell id="F71LygZBP5IlNCUUIRIO-208" value="Tech 3" style="strokeWidth=1;shadow=0;dashed=0;align=center;html=1;shape=mxgraph.mockup.forms.checkbox;rSize=0;resizable=0;fillColor=#aaaaaa;strokeColor=#444444;gradientColor=#666666;align=left;spacingLeft=4;fontSize=17;fontColor=#008cff;labelPosition=right;" vertex="1" parent="F71LygZBP5IlNCUUIRIO-205">
          <mxGeometry x="8" y="67.5" width="15" height="15" as="geometry" />
        </mxCell>
        <mxCell id="F71LygZBP5IlNCUUIRIO-209" value="Tech 4" style="strokeWidth=1;shadow=0;dashed=0;align=center;html=1;shape=mxgraph.mockup.forms.rrect;rSize=0;fillColor=#eeeeee;strokeColor=#999999;gradientColor=#cccccc;align=left;spacingLeft=4;fontSize=17;fontColor=#666666;labelPosition=right;" vertex="1" parent="F71LygZBP5IlNCUUIRIO-205">
          <mxGeometry x="8" y="97.5" width="15" height="15" as="geometry" />
        </mxCell>
        <mxCell id="F71LygZBP5IlNCUUIRIO-279" style="edgeStyle=none;curved=1;rounded=0;orthogonalLoop=1;jettySize=auto;html=1;fontSize=12;startSize=8;endSize=8;" edge="1" parent="1" source="F71LygZBP5IlNCUUIRIO-210" target="F71LygZBP5IlNCUUIRIO-246">
          <mxGeometry relative="1" as="geometry" />
        </mxCell>
        <mxCell id="F71LygZBP5IlNCUUIRIO-389" style="edgeStyle=none;curved=1;rounded=0;orthogonalLoop=1;jettySize=auto;html=1;fontSize=12;startSize=8;endSize=8;" edge="1" parent="1" source="F71LygZBP5IlNCUUIRIO-210" target="F71LygZBP5IlNCUUIRIO-1">
          <mxGeometry relative="1" as="geometry" />
        </mxCell>
        <mxCell id="F71LygZBP5IlNCUUIRIO-210" value="" style="strokeWidth=1;shadow=0;dashed=0;align=center;html=1;shape=mxgraph.mockup.containers.browserWindow;rSize=0;strokeColor=#666666;strokeColor2=#008cff;strokeColor3=#c4c4c4;mainText=,;recursiveResize=0;fontSize=16;" vertex="1" parent="1">
          <mxGeometry x="805" y="-90" width="847" height="653" as="geometry" />
        </mxCell>
        <mxCell id="F71LygZBP5IlNCUUIRIO-211" value="Page 1" style="strokeWidth=1;shadow=0;dashed=0;align=center;html=1;shape=mxgraph.mockup.containers.anchor;fontSize=17;fontColor=#666666;align=left;whiteSpace=wrap;" vertex="1" parent="F71LygZBP5IlNCUUIRIO-210">
          <mxGeometry x="60" y="12" width="110" height="26" as="geometry" />
        </mxCell>
        <mxCell id="F71LygZBP5IlNCUUIRIO-212" value="https://www.draw.io" style="strokeWidth=1;shadow=0;dashed=0;align=center;html=1;shape=mxgraph.mockup.containers.anchor;rSize=0;fontSize=17;fontColor=#666666;align=left;" vertex="1" parent="F71LygZBP5IlNCUUIRIO-210">
          <mxGeometry x="130" y="60" width="250" height="26" as="geometry" />
        </mxCell>
        <mxCell id="F71LygZBP5IlNCUUIRIO-213" value="Welcome&amp;nbsp; User name" style="text;html=1;strokeColor=none;fillColor=none;align=center;verticalAlign=middle;whiteSpace=wrap;rounded=0;fontSize=16;" vertex="1" parent="F71LygZBP5IlNCUUIRIO-210">
          <mxGeometry x="4" y="112" width="250" height="56" as="geometry" />
        </mxCell>
        <mxCell id="F71LygZBP5IlNCUUIRIO-214" value="Navbar" style="html=1;shadow=0;dashed=0;fillColor=#343A40;strokeColor=none;fontSize=16;fontColor=#ffffff;align=left;spacing=15;" vertex="1" parent="F71LygZBP5IlNCUUIRIO-210">
          <mxGeometry x="4" y="168" width="843" height="60" as="geometry" />
        </mxCell>
        <mxCell id="F71LygZBP5IlNCUUIRIO-215" value="Home" style="fillColor=none;strokeColor=none;fontSize=14;fontColor=#ffffff;align=center;" vertex="1" parent="F71LygZBP5IlNCUUIRIO-214">
          <mxGeometry width="70" height="40" relative="1" as="geometry">
            <mxPoint x="70" y="10" as="offset" />
          </mxGeometry>
        </mxCell>
        <mxCell id="F71LygZBP5IlNCUUIRIO-216" value="Create" style="fillColor=none;strokeColor=none;fontSize=14;fontColor=#9A9DA0;align=center;" vertex="1" parent="F71LygZBP5IlNCUUIRIO-214">
          <mxGeometry width="70" height="40" relative="1" as="geometry">
            <mxPoint x="140" y="10" as="offset" />
          </mxGeometry>
        </mxCell>
        <mxCell id="F71LygZBP5IlNCUUIRIO-217" value="Users" style="fillColor=none;strokeColor=none;fontSize=14;fontColor=#9A9DA0;align=center;spacingRight=0;" vertex="1" parent="F71LygZBP5IlNCUUIRIO-214">
          <mxGeometry width="80" height="40" relative="1" as="geometry">
            <mxPoint x="210" y="10" as="offset" />
          </mxGeometry>
        </mxCell>
        <mxCell id="F71LygZBP5IlNCUUIRIO-245" value="Logout" style="fillColor=none;strokeColor=none;fontSize=14;fontColor=#9A9DA0;align=center;spacingRight=0;" vertex="1" parent="F71LygZBP5IlNCUUIRIO-214">
          <mxGeometry width="80" height="40" relative="1" as="geometry">
            <mxPoint x="281" y="10" as="offset" />
          </mxGeometry>
        </mxCell>
        <mxCell id="F71LygZBP5IlNCUUIRIO-218" value="All Outstanding Tickets" style="swimlane;childLayout=stackLayout;resizeParent=1;resizeParentMax=0;horizontal=1;startSize=20;horizontalStack=0;html=1;fontSize=16;" vertex="1" parent="F71LygZBP5IlNCUUIRIO-210">
          <mxGeometry x="43" y="245" width="484" height="380" as="geometry" />
        </mxCell>
        <mxCell id="F71LygZBP5IlNCUUIRIO-219" value="Ticket 1" style="swimlane;startSize=20;horizontal=0;html=1;fontSize=16;" vertex="1" parent="F71LygZBP5IlNCUUIRIO-218">
          <mxGeometry y="20" width="484" height="120" as="geometry" />
        </mxCell>
        <mxCell id="F71LygZBP5IlNCUUIRIO-220" value="Customer" style="text;html=1;strokeColor=none;fillColor=none;align=center;verticalAlign=middle;whiteSpace=wrap;rounded=0;fontSize=16;" vertex="1" parent="F71LygZBP5IlNCUUIRIO-219">
          <mxGeometry x="24" y="7" width="97" height="30" as="geometry" />
        </mxCell>
        <mxCell id="F71LygZBP5IlNCUUIRIO-221" value="Decription" style="text;html=1;strokeColor=none;fillColor=none;align=center;verticalAlign=middle;whiteSpace=wrap;rounded=0;fontSize=16;" vertex="1" parent="F71LygZBP5IlNCUUIRIO-219">
          <mxGeometry x="24" y="45" width="120" height="30" as="geometry" />
        </mxCell>
        <mxCell id="F71LygZBP5IlNCUUIRIO-222" value="Complete" style="html=1;shadow=0;dashed=0;shape=mxgraph.bootstrap.rrect;rSize=5;strokeColor=none;strokeWidth=1;fillColor=#0085FC;fontColor=#FFFFFF;whiteSpace=wrap;align=center;verticalAlign=middle;spacingLeft=0;fontStyle=0;fontSize=16;spacing=5;" vertex="1" parent="F71LygZBP5IlNCUUIRIO-219">
          <mxGeometry x="382" y="5" width="98" height="25" as="geometry" />
        </mxCell>
        <mxCell id="F71LygZBP5IlNCUUIRIO-223" value="Edit" style="html=1;shadow=0;dashed=0;shape=mxgraph.bootstrap.rrect;rSize=5;strokeColor=none;strokeWidth=1;fillColor=#6C767D;fontColor=#FFFFFF;whiteSpace=wrap;align=center;verticalAlign=middle;spacingLeft=0;fontStyle=0;fontSize=16;spacing=5;" vertex="1" parent="F71LygZBP5IlNCUUIRIO-219">
          <mxGeometry x="382" y="40" width="98" height="24" as="geometry" />
        </mxCell>
        <mxCell id="F71LygZBP5IlNCUUIRIO-236" value="Delete" style="html=1;shadow=0;dashed=0;shape=mxgraph.bootstrap.rrect;rSize=5;strokeColor=none;strokeWidth=1;fillColor=#DB2843;fontColor=#FFFFFF;whiteSpace=wrap;align=center;verticalAlign=middle;spacingLeft=0;fontStyle=0;fontSize=16;spacing=5;" vertex="1" parent="F71LygZBP5IlNCUUIRIO-219">
          <mxGeometry x="383.5" y="77" width="95" height="29" as="geometry" />
        </mxCell>
        <mxCell id="F71LygZBP5IlNCUUIRIO-239" value="Tech" style="text;html=1;strokeColor=none;fillColor=none;align=center;verticalAlign=middle;whiteSpace=wrap;rounded=0;fontSize=16;" vertex="1" parent="F71LygZBP5IlNCUUIRIO-219">
          <mxGeometry x="56" y="86" width="60" height="30" as="geometry" />
        </mxCell>
        <mxCell id="F71LygZBP5IlNCUUIRIO-224" value="Ticket 2" style="swimlane;startSize=20;horizontal=0;html=1;fontSize=16;" vertex="1" parent="F71LygZBP5IlNCUUIRIO-218">
          <mxGeometry y="140" width="484" height="120" as="geometry" />
        </mxCell>
        <mxCell id="F71LygZBP5IlNCUUIRIO-225" value="Customer" style="text;html=1;strokeColor=none;fillColor=none;align=center;verticalAlign=middle;whiteSpace=wrap;rounded=0;fontSize=16;" vertex="1" parent="F71LygZBP5IlNCUUIRIO-224">
          <mxGeometry x="24" y="7" width="97" height="30" as="geometry" />
        </mxCell>
        <mxCell id="F71LygZBP5IlNCUUIRIO-226" value="Decription" style="text;html=1;strokeColor=none;fillColor=none;align=center;verticalAlign=middle;whiteSpace=wrap;rounded=0;fontSize=16;" vertex="1" parent="F71LygZBP5IlNCUUIRIO-224">
          <mxGeometry x="24" y="45" width="120" height="30" as="geometry" />
        </mxCell>
        <mxCell id="F71LygZBP5IlNCUUIRIO-227" value="Complete" style="html=1;shadow=0;dashed=0;shape=mxgraph.bootstrap.rrect;rSize=5;strokeColor=none;strokeWidth=1;fillColor=#0085FC;fontColor=#FFFFFF;whiteSpace=wrap;align=center;verticalAlign=middle;spacingLeft=0;fontStyle=0;fontSize=16;spacing=5;" vertex="1" parent="F71LygZBP5IlNCUUIRIO-224">
          <mxGeometry x="382" y="5" width="98" height="25" as="geometry" />
        </mxCell>
        <mxCell id="F71LygZBP5IlNCUUIRIO-228" value="Edit" style="html=1;shadow=0;dashed=0;shape=mxgraph.bootstrap.rrect;rSize=5;strokeColor=none;strokeWidth=1;fillColor=#6C767D;fontColor=#FFFFFF;whiteSpace=wrap;align=center;verticalAlign=middle;spacingLeft=0;fontStyle=0;fontSize=16;spacing=5;" vertex="1" parent="F71LygZBP5IlNCUUIRIO-224">
          <mxGeometry x="382" y="40" width="98" height="24" as="geometry" />
        </mxCell>
        <mxCell id="F71LygZBP5IlNCUUIRIO-235" value="Delete" style="html=1;shadow=0;dashed=0;shape=mxgraph.bootstrap.rrect;rSize=5;strokeColor=none;strokeWidth=1;fillColor=#DB2843;fontColor=#FFFFFF;whiteSpace=wrap;align=center;verticalAlign=middle;spacingLeft=0;fontStyle=0;fontSize=16;spacing=5;" vertex="1" parent="F71LygZBP5IlNCUUIRIO-224">
          <mxGeometry x="383.5" y="77" width="95" height="29" as="geometry" />
        </mxCell>
        <mxCell id="F71LygZBP5IlNCUUIRIO-238" value="Tech" style="text;html=1;strokeColor=none;fillColor=none;align=center;verticalAlign=middle;whiteSpace=wrap;rounded=0;fontSize=16;" vertex="1" parent="F71LygZBP5IlNCUUIRIO-224">
          <mxGeometry x="54" y="82" width="60" height="30" as="geometry" />
        </mxCell>
        <mxCell id="F71LygZBP5IlNCUUIRIO-229" value="Ticket 3" style="swimlane;startSize=20;horizontal=0;html=1;fontSize=16;" vertex="1" parent="F71LygZBP5IlNCUUIRIO-218">
          <mxGeometry y="260" width="484" height="120" as="geometry" />
        </mxCell>
        <mxCell id="F71LygZBP5IlNCUUIRIO-230" value="Customer" style="text;html=1;strokeColor=none;fillColor=none;align=center;verticalAlign=middle;whiteSpace=wrap;rounded=0;fontSize=16;" vertex="1" parent="F71LygZBP5IlNCUUIRIO-229">
          <mxGeometry x="24" y="7" width="97" height="30" as="geometry" />
        </mxCell>
        <mxCell id="F71LygZBP5IlNCUUIRIO-231" value="Decription" style="text;html=1;strokeColor=none;fillColor=none;align=center;verticalAlign=middle;whiteSpace=wrap;rounded=0;fontSize=16;" vertex="1" parent="F71LygZBP5IlNCUUIRIO-229">
          <mxGeometry x="24" y="45" width="120" height="30" as="geometry" />
        </mxCell>
        <mxCell id="F71LygZBP5IlNCUUIRIO-232" value="Complete" style="html=1;shadow=0;dashed=0;shape=mxgraph.bootstrap.rrect;rSize=5;strokeColor=none;strokeWidth=1;fillColor=#0085FC;fontColor=#FFFFFF;whiteSpace=wrap;align=center;verticalAlign=middle;spacingLeft=0;fontStyle=0;fontSize=16;spacing=5;" vertex="1" parent="F71LygZBP5IlNCUUIRIO-229">
          <mxGeometry x="382" y="5" width="98" height="25" as="geometry" />
        </mxCell>
        <mxCell id="F71LygZBP5IlNCUUIRIO-233" value="Edit" style="html=1;shadow=0;dashed=0;shape=mxgraph.bootstrap.rrect;rSize=5;strokeColor=none;strokeWidth=1;fillColor=#6C767D;fontColor=#FFFFFF;whiteSpace=wrap;align=center;verticalAlign=middle;spacingLeft=0;fontStyle=0;fontSize=16;spacing=5;" vertex="1" parent="F71LygZBP5IlNCUUIRIO-229">
          <mxGeometry x="382" y="40" width="98" height="24" as="geometry" />
        </mxCell>
        <mxCell id="F71LygZBP5IlNCUUIRIO-234" value="Delete" style="html=1;shadow=0;dashed=0;shape=mxgraph.bootstrap.rrect;rSize=5;strokeColor=none;strokeWidth=1;fillColor=#DB2843;fontColor=#FFFFFF;whiteSpace=wrap;align=center;verticalAlign=middle;spacingLeft=0;fontStyle=0;fontSize=16;spacing=5;" vertex="1" parent="F71LygZBP5IlNCUUIRIO-229">
          <mxGeometry x="382" y="72" width="95" height="29" as="geometry" />
        </mxCell>
        <mxCell id="F71LygZBP5IlNCUUIRIO-237" value="Tech" style="text;html=1;strokeColor=none;fillColor=none;align=center;verticalAlign=middle;whiteSpace=wrap;rounded=0;fontSize=16;" vertex="1" parent="F71LygZBP5IlNCUUIRIO-229">
          <mxGeometry x="54" y="83" width="60" height="30" as="geometry" />
        </mxCell>
        <mxCell id="F71LygZBP5IlNCUUIRIO-277" style="edgeStyle=none;curved=1;rounded=0;orthogonalLoop=1;jettySize=auto;html=1;entryX=0.998;entryY=0.512;entryDx=0;entryDy=0;entryPerimeter=0;fontSize=12;startSize=8;endSize=8;" edge="1" parent="1" source="F71LygZBP5IlNCUUIRIO-246" target="F71LygZBP5IlNCUUIRIO-210">
          <mxGeometry relative="1" as="geometry" />
        </mxCell>
        <mxCell id="F71LygZBP5IlNCUUIRIO-371" style="edgeStyle=none;curved=1;rounded=0;orthogonalLoop=1;jettySize=auto;html=1;entryX=0.5;entryY=-0.001;entryDx=0;entryDy=0;entryPerimeter=0;fontSize=12;startSize=8;endSize=8;" edge="1" parent="1" source="F71LygZBP5IlNCUUIRIO-246" target="F71LygZBP5IlNCUUIRIO-342">
          <mxGeometry relative="1" as="geometry" />
        </mxCell>
        <mxCell id="F71LygZBP5IlNCUUIRIO-246" value="" style="strokeWidth=1;shadow=0;dashed=0;align=center;html=1;shape=mxgraph.mockup.containers.browserWindow;rSize=0;strokeColor=#666666;strokeColor2=#008cff;strokeColor3=#c4c4c4;mainText=,;recursiveResize=0;fontSize=16;" vertex="1" parent="1">
          <mxGeometry x="1705" y="-84" width="847" height="653" as="geometry" />
        </mxCell>
        <mxCell id="F71LygZBP5IlNCUUIRIO-247" value="Page 1" style="strokeWidth=1;shadow=0;dashed=0;align=center;html=1;shape=mxgraph.mockup.containers.anchor;fontSize=17;fontColor=#666666;align=left;whiteSpace=wrap;" vertex="1" parent="F71LygZBP5IlNCUUIRIO-246">
          <mxGeometry x="60" y="12" width="110" height="26" as="geometry" />
        </mxCell>
        <mxCell id="F71LygZBP5IlNCUUIRIO-248" value="https://www.draw.io" style="strokeWidth=1;shadow=0;dashed=0;align=center;html=1;shape=mxgraph.mockup.containers.anchor;rSize=0;fontSize=17;fontColor=#666666;align=left;" vertex="1" parent="F71LygZBP5IlNCUUIRIO-246">
          <mxGeometry x="130" y="60" width="250" height="26" as="geometry" />
        </mxCell>
        <mxCell id="F71LygZBP5IlNCUUIRIO-249" value="Welcome&amp;nbsp; User name" style="text;html=1;strokeColor=none;fillColor=none;align=center;verticalAlign=middle;whiteSpace=wrap;rounded=0;fontSize=16;" vertex="1" parent="F71LygZBP5IlNCUUIRIO-246">
          <mxGeometry x="4" y="112" width="250" height="56" as="geometry" />
        </mxCell>
        <mxCell id="F71LygZBP5IlNCUUIRIO-250" value="Navbar" style="html=1;shadow=0;dashed=0;fillColor=#343A40;strokeColor=none;fontSize=16;fontColor=#ffffff;align=left;spacing=15;" vertex="1" parent="F71LygZBP5IlNCUUIRIO-246">
          <mxGeometry x="4" y="168" width="843" height="60" as="geometry" />
        </mxCell>
        <mxCell id="F71LygZBP5IlNCUUIRIO-251" value="Users" style="fillColor=none;strokeColor=none;fontSize=14;fontColor=#ffffff;align=center;" vertex="1" parent="F71LygZBP5IlNCUUIRIO-250">
          <mxGeometry width="70" height="40" relative="1" as="geometry">
            <mxPoint x="215" y="10" as="offset" />
          </mxGeometry>
        </mxCell>
        <mxCell id="F71LygZBP5IlNCUUIRIO-252" value="Create" style="fillColor=none;strokeColor=none;fontSize=14;fontColor=#9A9DA0;align=center;" vertex="1" parent="F71LygZBP5IlNCUUIRIO-250">
          <mxGeometry width="70" height="40" relative="1" as="geometry">
            <mxPoint x="140" y="10" as="offset" />
          </mxGeometry>
        </mxCell>
        <mxCell id="F71LygZBP5IlNCUUIRIO-253" value="Home" style="fillColor=none;strokeColor=none;fontSize=14;fontColor=#9A9DA0;align=center;spacingRight=0;" vertex="1" parent="F71LygZBP5IlNCUUIRIO-250">
          <mxGeometry width="80" height="40" relative="1" as="geometry">
            <mxPoint x="79" y="10" as="offset" />
          </mxGeometry>
        </mxCell>
        <mxCell id="F71LygZBP5IlNCUUIRIO-254" value="Logout" style="fillColor=none;strokeColor=none;fontSize=14;fontColor=#9A9DA0;align=center;spacingRight=0;" vertex="1" parent="F71LygZBP5IlNCUUIRIO-250">
          <mxGeometry width="80" height="40" relative="1" as="geometry">
            <mxPoint x="294" y="10" as="offset" />
          </mxGeometry>
        </mxCell>
        <mxCell id="F71LygZBP5IlNCUUIRIO-321" value="Table" style="shape=table;startSize=30;container=1;collapsible=1;childLayout=tableLayout;fixedRows=1;rowLines=0;fontStyle=1;align=center;resizeLast=1;html=1;fontSize=16;" vertex="1" parent="F71LygZBP5IlNCUUIRIO-246">
          <mxGeometry x="66" y="255" width="576" height="325" as="geometry" />
        </mxCell>
        <mxCell id="F71LygZBP5IlNCUUIRIO-322" value="" style="shape=tableRow;horizontal=0;startSize=0;swimlaneHead=0;swimlaneBody=0;fillColor=none;collapsible=0;dropTarget=0;points=[[0,0.5],[1,0.5]];portConstraint=eastwest;top=0;left=0;right=0;bottom=1;fontSize=16;" vertex="1" parent="F71LygZBP5IlNCUUIRIO-321">
          <mxGeometry y="30" width="576" height="30" as="geometry" />
        </mxCell>
        <mxCell id="F71LygZBP5IlNCUUIRIO-323" value="Id" style="shape=partialRectangle;connectable=0;fillColor=none;top=0;left=0;bottom=0;right=0;fontStyle=1;overflow=hidden;whiteSpace=wrap;html=1;fontSize=16;" vertex="1" parent="F71LygZBP5IlNCUUIRIO-322">
          <mxGeometry width="25.984136672246905" height="30" as="geometry">
            <mxRectangle width="25.984136672246905" height="30" as="alternateBounds" />
          </mxGeometry>
        </mxCell>
        <mxCell id="F71LygZBP5IlNCUUIRIO-324" value="user" style="shape=partialRectangle;connectable=0;fillColor=none;top=0;left=0;bottom=0;right=0;align=left;spacingLeft=6;fontStyle=5;overflow=hidden;whiteSpace=wrap;html=1;fontSize=16;" vertex="1" parent="F71LygZBP5IlNCUUIRIO-322">
          <mxGeometry x="25.984136672246905" width="550.0158633277531" height="30" as="geometry">
            <mxRectangle width="550.0158633277531" height="30" as="alternateBounds" />
          </mxGeometry>
        </mxCell>
        <mxCell id="F71LygZBP5IlNCUUIRIO-325" value="" style="shape=tableRow;horizontal=0;startSize=0;swimlaneHead=0;swimlaneBody=0;fillColor=none;collapsible=0;dropTarget=0;points=[[0,0.5],[1,0.5]];portConstraint=eastwest;top=0;left=0;right=0;bottom=0;fontSize=16;" vertex="1" parent="F71LygZBP5IlNCUUIRIO-321">
          <mxGeometry y="60" width="576" height="30" as="geometry" />
        </mxCell>
        <mxCell id="F71LygZBP5IlNCUUIRIO-326" value="1" style="shape=partialRectangle;connectable=0;fillColor=none;top=0;left=0;bottom=0;right=0;editable=1;overflow=hidden;whiteSpace=wrap;html=1;fontSize=16;" vertex="1" parent="F71LygZBP5IlNCUUIRIO-325">
          <mxGeometry width="25.984136672246905" height="30" as="geometry">
            <mxRectangle width="25.984136672246905" height="30" as="alternateBounds" />
          </mxGeometry>
        </mxCell>
        <mxCell id="F71LygZBP5IlNCUUIRIO-327" value="User 1" style="shape=partialRectangle;connectable=0;fillColor=none;top=0;left=0;bottom=0;right=0;align=left;spacingLeft=6;overflow=hidden;whiteSpace=wrap;html=1;fontSize=16;" vertex="1" parent="F71LygZBP5IlNCUUIRIO-325">
          <mxGeometry x="25.984136672246905" width="550.0158633277531" height="30" as="geometry">
            <mxRectangle width="550.0158633277531" height="30" as="alternateBounds" />
          </mxGeometry>
        </mxCell>
        <mxCell id="F71LygZBP5IlNCUUIRIO-328" value="" style="shape=tableRow;horizontal=0;startSize=0;swimlaneHead=0;swimlaneBody=0;fillColor=none;collapsible=0;dropTarget=0;points=[[0,0.5],[1,0.5]];portConstraint=eastwest;top=0;left=0;right=0;bottom=0;fontSize=16;" vertex="1" parent="F71LygZBP5IlNCUUIRIO-321">
          <mxGeometry y="90" width="576" height="30" as="geometry" />
        </mxCell>
        <mxCell id="F71LygZBP5IlNCUUIRIO-329" value="2" style="shape=partialRectangle;connectable=0;fillColor=none;top=0;left=0;bottom=0;right=0;editable=1;overflow=hidden;whiteSpace=wrap;html=1;fontSize=16;" vertex="1" parent="F71LygZBP5IlNCUUIRIO-328">
          <mxGeometry width="25.984136672246905" height="30" as="geometry">
            <mxRectangle width="25.984136672246905" height="30" as="alternateBounds" />
          </mxGeometry>
        </mxCell>
        <mxCell id="F71LygZBP5IlNCUUIRIO-330" value="User 2" style="shape=partialRectangle;connectable=0;fillColor=none;top=0;left=0;bottom=0;right=0;align=left;spacingLeft=6;overflow=hidden;whiteSpace=wrap;html=1;fontSize=16;" vertex="1" parent="F71LygZBP5IlNCUUIRIO-328">
          <mxGeometry x="25.984136672246905" width="550.0158633277531" height="30" as="geometry">
            <mxRectangle width="550.0158633277531" height="30" as="alternateBounds" />
          </mxGeometry>
        </mxCell>
        <mxCell id="F71LygZBP5IlNCUUIRIO-331" value="" style="shape=tableRow;horizontal=0;startSize=0;swimlaneHead=0;swimlaneBody=0;fillColor=none;collapsible=0;dropTarget=0;points=[[0,0.5],[1,0.5]];portConstraint=eastwest;top=0;left=0;right=0;bottom=0;fontSize=16;" vertex="1" parent="F71LygZBP5IlNCUUIRIO-321">
          <mxGeometry y="120" width="576" height="30" as="geometry" />
        </mxCell>
        <mxCell id="F71LygZBP5IlNCUUIRIO-332" value="3" style="shape=partialRectangle;connectable=0;fillColor=none;top=0;left=0;bottom=0;right=0;editable=1;overflow=hidden;whiteSpace=wrap;html=1;fontSize=16;" vertex="1" parent="F71LygZBP5IlNCUUIRIO-331">
          <mxGeometry width="25.984136672246905" height="30" as="geometry">
            <mxRectangle width="25.984136672246905" height="30" as="alternateBounds" />
          </mxGeometry>
        </mxCell>
        <mxCell id="F71LygZBP5IlNCUUIRIO-333" value="User 3" style="shape=partialRectangle;connectable=0;fillColor=none;top=0;left=0;bottom=0;right=0;align=left;spacingLeft=6;overflow=hidden;whiteSpace=wrap;html=1;fontSize=16;" vertex="1" parent="F71LygZBP5IlNCUUIRIO-331">
          <mxGeometry x="25.984136672246905" width="550.0158633277531" height="30" as="geometry">
            <mxRectangle width="550.0158633277531" height="30" as="alternateBounds" />
          </mxGeometry>
        </mxCell>
        <mxCell id="F71LygZBP5IlNCUUIRIO-334" value="Remove" style="html=1;shadow=0;dashed=0;shape=mxgraph.bootstrap.rrect;rSize=5;strokeColor=none;strokeWidth=1;fillColor=#DB2843;fontColor=#FFFFFF;whiteSpace=wrap;align=left;verticalAlign=middle;spacingLeft=0;fontStyle=1;fontSize=14;spacing=5;" vertex="1" parent="F71LygZBP5IlNCUUIRIO-246">
          <mxGeometry x="286" y="320" width="60" height="20" as="geometry" />
        </mxCell>
        <mxCell id="F71LygZBP5IlNCUUIRIO-335" value="Edit" style="rounded=1;whiteSpace=wrap;html=1;arcSize=50;strokeColor=none;strokeWidth=1;fillColor=#0085FC;fontColor=#FFFFFF;whiteSpace=wrap;align=left;verticalAlign=middle;spacingLeft=0;fontStyle=1;fontSize=14;spacing=10;" vertex="1" parent="F71LygZBP5IlNCUUIRIO-246">
          <mxGeometry x="355" y="320" width="70" height="20" as="geometry" />
        </mxCell>
        <mxCell id="F71LygZBP5IlNCUUIRIO-337" value="Edit" style="rounded=1;whiteSpace=wrap;html=1;arcSize=50;strokeColor=none;strokeWidth=1;fillColor=#0085FC;fontColor=#FFFFFF;whiteSpace=wrap;align=left;verticalAlign=middle;spacingLeft=0;fontStyle=1;fontSize=14;spacing=10;" vertex="1" parent="F71LygZBP5IlNCUUIRIO-246">
          <mxGeometry x="355" y="350" width="70" height="20" as="geometry" />
        </mxCell>
        <mxCell id="F71LygZBP5IlNCUUIRIO-338" value="Remove" style="html=1;shadow=0;dashed=0;shape=mxgraph.bootstrap.rrect;rSize=5;strokeColor=none;strokeWidth=1;fillColor=#DB2843;fontColor=#FFFFFF;whiteSpace=wrap;align=left;verticalAlign=middle;spacingLeft=0;fontStyle=1;fontSize=14;spacing=5;" vertex="1" parent="F71LygZBP5IlNCUUIRIO-246">
          <mxGeometry x="286" y="350" width="60" height="20" as="geometry" />
        </mxCell>
        <mxCell id="F71LygZBP5IlNCUUIRIO-339" value="Edit" style="rounded=1;whiteSpace=wrap;html=1;arcSize=50;strokeColor=none;strokeWidth=1;fillColor=#0085FC;fontColor=#FFFFFF;whiteSpace=wrap;align=left;verticalAlign=middle;spacingLeft=0;fontStyle=1;fontSize=14;spacing=10;" vertex="1" parent="F71LygZBP5IlNCUUIRIO-246">
          <mxGeometry x="355" y="381" width="70" height="20" as="geometry" />
        </mxCell>
        <mxCell id="F71LygZBP5IlNCUUIRIO-340" value="Remove" style="html=1;shadow=0;dashed=0;shape=mxgraph.bootstrap.rrect;rSize=5;strokeColor=none;strokeWidth=1;fillColor=#DB2843;fontColor=#FFFFFF;whiteSpace=wrap;align=left;verticalAlign=middle;spacingLeft=0;fontStyle=1;fontSize=14;spacing=5;" vertex="1" parent="F71LygZBP5IlNCUUIRIO-246">
          <mxGeometry x="286" y="381" width="60" height="20" as="geometry" />
        </mxCell>
        <mxCell id="F71LygZBP5IlNCUUIRIO-341" value="New User" style="html=1;shadow=0;dashed=0;shape=mxgraph.bootstrap.rrect;rSize=5;strokeColor=none;strokeWidth=1;fillColor=#33A64C;fontColor=#FFFFFF;whiteSpace=wrap;align=center;verticalAlign=middle;spacingLeft=0;fontStyle=0;fontSize=16;spacing=5;" vertex="1" parent="F71LygZBP5IlNCUUIRIO-246">
          <mxGeometry x="707" y="266" width="90" height="40" as="geometry" />
        </mxCell>
        <mxCell id="F71LygZBP5IlNCUUIRIO-387" style="edgeStyle=none;curved=1;rounded=0;orthogonalLoop=1;jettySize=auto;html=1;fontSize=12;startSize=8;endSize=8;" edge="1" parent="1" source="F71LygZBP5IlNCUUIRIO-342" target="F71LygZBP5IlNCUUIRIO-246">
          <mxGeometry relative="1" as="geometry" />
        </mxCell>
        <mxCell id="F71LygZBP5IlNCUUIRIO-342" value="" style="strokeWidth=1;shadow=0;dashed=0;align=center;html=1;shape=mxgraph.mockup.containers.browserWindow;rSize=0;strokeColor=#666666;strokeColor2=#008cff;strokeColor3=#c4c4c4;mainText=,;recursiveResize=0;fontSize=16;" vertex="1" parent="1">
          <mxGeometry x="1712" y="638" width="847" height="973" as="geometry" />
        </mxCell>
        <mxCell id="F71LygZBP5IlNCUUIRIO-343" value="Page 1" style="strokeWidth=1;shadow=0;dashed=0;align=center;html=1;shape=mxgraph.mockup.containers.anchor;fontSize=17;fontColor=#666666;align=left;whiteSpace=wrap;" vertex="1" parent="F71LygZBP5IlNCUUIRIO-342">
          <mxGeometry x="60" y="12" width="110" height="26" as="geometry" />
        </mxCell>
        <mxCell id="F71LygZBP5IlNCUUIRIO-344" value="https://www.draw.io" style="strokeWidth=1;shadow=0;dashed=0;align=center;html=1;shape=mxgraph.mockup.containers.anchor;rSize=0;fontSize=17;fontColor=#666666;align=left;" vertex="1" parent="F71LygZBP5IlNCUUIRIO-342">
          <mxGeometry x="130" y="60" width="250" height="26" as="geometry" />
        </mxCell>
        <mxCell id="F71LygZBP5IlNCUUIRIO-345" value="Welcome&amp;nbsp; User name" style="text;html=1;strokeColor=none;fillColor=none;align=center;verticalAlign=middle;whiteSpace=wrap;rounded=0;fontSize=16;" vertex="1" parent="F71LygZBP5IlNCUUIRIO-342">
          <mxGeometry x="4" y="112" width="250" height="56" as="geometry" />
        </mxCell>
        <mxCell id="F71LygZBP5IlNCUUIRIO-346" value="Navbar" style="html=1;shadow=0;dashed=0;fillColor=#343A40;strokeColor=none;fontSize=16;fontColor=#ffffff;align=left;spacing=15;" vertex="1" parent="F71LygZBP5IlNCUUIRIO-342">
          <mxGeometry x="4" y="168" width="843" height="60" as="geometry" />
        </mxCell>
        <mxCell id="F71LygZBP5IlNCUUIRIO-347" value="Users" style="fillColor=none;strokeColor=none;fontSize=14;fontColor=#ffffff;align=center;" vertex="1" parent="F71LygZBP5IlNCUUIRIO-346">
          <mxGeometry width="70" height="40" relative="1" as="geometry">
            <mxPoint x="215" y="10" as="offset" />
          </mxGeometry>
        </mxCell>
        <mxCell id="F71LygZBP5IlNCUUIRIO-348" value="Create" style="fillColor=none;strokeColor=none;fontSize=14;fontColor=#9A9DA0;align=center;" vertex="1" parent="F71LygZBP5IlNCUUIRIO-346">
          <mxGeometry width="70" height="40" relative="1" as="geometry">
            <mxPoint x="140" y="10" as="offset" />
          </mxGeometry>
        </mxCell>
        <mxCell id="F71LygZBP5IlNCUUIRIO-349" value="Home" style="fillColor=none;strokeColor=none;fontSize=14;fontColor=#9A9DA0;align=center;spacingRight=0;" vertex="1" parent="F71LygZBP5IlNCUUIRIO-346">
          <mxGeometry width="80" height="40" relative="1" as="geometry">
            <mxPoint x="79" y="10" as="offset" />
          </mxGeometry>
        </mxCell>
        <mxCell id="F71LygZBP5IlNCUUIRIO-350" value="Logout" style="fillColor=none;strokeColor=none;fontSize=14;fontColor=#9A9DA0;align=center;spacingRight=0;" vertex="1" parent="F71LygZBP5IlNCUUIRIO-346">
          <mxGeometry width="80" height="40" relative="1" as="geometry">
            <mxPoint x="294" y="10" as="offset" />
          </mxGeometry>
        </mxCell>
        <mxCell id="F71LygZBP5IlNCUUIRIO-372" value="New User" style="html=1;shadow=0;dashed=0;shape=mxgraph.bootstrap.rrect;rSize=5;html=1;strokeColor=#C8C8C8;fillColor=#ffffff;whiteSpace=wrap;verticalAlign=top;align=left;fontSize=18;spacing=15;spacingTop=-5;" vertex="1" parent="F71LygZBP5IlNCUUIRIO-342">
          <mxGeometry x="225.5" y="267" width="400" height="573" as="geometry" />
        </mxCell>
        <mxCell id="F71LygZBP5IlNCUUIRIO-373" value="" style="shape=line;strokeColor=#dddddd;resizeWidth=1;fontSize=16;" vertex="1" parent="F71LygZBP5IlNCUUIRIO-372">
          <mxGeometry width="400" height="10" relative="1" as="geometry">
            <mxPoint y="50" as="offset" />
          </mxGeometry>
        </mxCell>
        <mxCell id="F71LygZBP5IlNCUUIRIO-374" value="" style="html=1;shadow=0;dashed=0;shape=mxgraph.bootstrap.x;strokeColor=#868686;strokeWidth=2;fontSize=16;" vertex="1" parent="F71LygZBP5IlNCUUIRIO-372">
          <mxGeometry x="1" width="8" height="8" relative="1" as="geometry">
            <mxPoint x="-24" y="20" as="offset" />
          </mxGeometry>
        </mxCell>
        <mxCell id="F71LygZBP5IlNCUUIRIO-375" value="Name" style="strokeColor=none;fillColor=none;resizeWidth=1;align=left;verticalAlign=top;spacing=10;fontSize=14;whiteSpace=wrap;html=1;" vertex="1" parent="F71LygZBP5IlNCUUIRIO-372">
          <mxGeometry width="400" height="40" relative="1" as="geometry">
            <mxPoint y="60" as="offset" />
          </mxGeometry>
        </mxCell>
        <mxCell id="F71LygZBP5IlNCUUIRIO-376" value="" style="html=1;shadow=0;dashed=0;shape=mxgraph.bootstrap.rrect;rSize=5;strokeColor=#CED4DA;fillColor=none;align=left;verticalAlign=middle;spacing=10;fontSize=14;whiteSpace=wrap;html=1;" vertex="1" parent="F71LygZBP5IlNCUUIRIO-372">
          <mxGeometry width="380" height="40" relative="1" as="geometry">
            <mxPoint x="10" y="100" as="offset" />
          </mxGeometry>
        </mxCell>
        <mxCell id="F71LygZBP5IlNCUUIRIO-377" value="Department" style="strokeColor=none;fillColor=none;resizeWidth=1;align=left;verticalAlign=top;spacing=10;fontSize=14;whiteSpace=wrap;html=1;" vertex="1" parent="F71LygZBP5IlNCUUIRIO-372">
          <mxGeometry width="400" height="40" relative="1" as="geometry">
            <mxPoint y="160" as="offset" />
          </mxGeometry>
        </mxCell>
        <mxCell id="F71LygZBP5IlNCUUIRIO-378" value="" style="html=1;shadow=0;dashed=0;shape=mxgraph.bootstrap.rrect;rSize=5;strokeColor=#CED4DA;fillColor=none;align=left;verticalAlign=middle;spacing=10;fontSize=14;whiteSpace=wrap;html=1;" vertex="1" parent="F71LygZBP5IlNCUUIRIO-372">
          <mxGeometry width="380" height="70" relative="1" as="geometry">
            <mxPoint x="10" y="200" as="offset" />
          </mxGeometry>
        </mxCell>
        <mxCell id="F71LygZBP5IlNCUUIRIO-379" value="Save" style="html=1;shadow=0;dashed=0;shape=mxgraph.bootstrap.rrect;rSize=5;fillColor=#0085FC;strokeColor=none;fontColor=#FFFFFF;fontSize=14;" vertex="1" parent="F71LygZBP5IlNCUUIRIO-372">
          <mxGeometry x="1" y="1" width="110" height="40" relative="1" as="geometry">
            <mxPoint x="-130" y="-60" as="offset" />
          </mxGeometry>
        </mxCell>
        <mxCell id="F71LygZBP5IlNCUUIRIO-380" value="Authorization" style="strokeColor=none;fillColor=none;resizeWidth=1;align=left;verticalAlign=top;spacing=10;fontSize=14;whiteSpace=wrap;html=1;" vertex="1" parent="F71LygZBP5IlNCUUIRIO-372">
          <mxGeometry width="400" height="40" relative="1" as="geometry">
            <mxPoint y="289" as="offset" />
          </mxGeometry>
        </mxCell>
        <mxCell id="F71LygZBP5IlNCUUIRIO-381" value="" style="strokeWidth=1;shadow=0;dashed=0;align=center;html=1;shape=mxgraph.mockup.forms.rrect;rSize=0;strokeColor=#999999;fillColor=#ffffff;recursiveResize=0;fontSize=16;" vertex="1" parent="F71LygZBP5IlNCUUIRIO-372">
          <mxGeometry x="89.5" y="334" width="221" height="120" as="geometry" />
        </mxCell>
        <mxCell id="F71LygZBP5IlNCUUIRIO-382" value="Add" style="strokeWidth=1;shadow=0;dashed=0;align=center;html=1;shape=mxgraph.mockup.forms.rrect;rSize=0;fillColor=#eeeeee;strokeColor=#999999;gradientColor=#cccccc;align=left;spacingLeft=4;fontSize=17;fontColor=#666666;labelPosition=right;" vertex="1" parent="F71LygZBP5IlNCUUIRIO-381">
          <mxGeometry x="8" y="7.5" width="15" height="15" as="geometry" />
        </mxCell>
        <mxCell id="F71LygZBP5IlNCUUIRIO-383" value="Delete" style="strokeWidth=1;shadow=0;dashed=0;align=center;html=1;shape=mxgraph.mockup.forms.rrect;rSize=0;fillColor=#eeeeee;strokeColor=#999999;gradientColor=#cccccc;align=left;spacingLeft=4;fontSize=17;fontColor=#666666;labelPosition=right;" vertex="1" parent="F71LygZBP5IlNCUUIRIO-381">
          <mxGeometry x="8" y="37.5" width="15" height="15" as="geometry" />
        </mxCell>
        <mxCell id="F71LygZBP5IlNCUUIRIO-384" value="Edit" style="strokeWidth=1;shadow=0;dashed=0;align=center;html=1;shape=mxgraph.mockup.forms.checkbox;rSize=0;resizable=0;fillColor=#aaaaaa;strokeColor=#444444;gradientColor=#666666;align=left;spacingLeft=4;fontSize=17;fontColor=#008cff;labelPosition=right;" vertex="1" parent="F71LygZBP5IlNCUUIRIO-381">
          <mxGeometry x="8" y="67.5" width="15" height="15" as="geometry" />
        </mxCell>
        <mxCell id="F71LygZBP5IlNCUUIRIO-385" value="Tech 4" style="strokeWidth=1;shadow=0;dashed=0;align=center;html=1;shape=mxgraph.mockup.forms.rrect;rSize=0;fillColor=#eeeeee;strokeColor=#999999;gradientColor=#cccccc;align=left;spacingLeft=4;fontSize=17;fontColor=#666666;labelPosition=right;" vertex="1" parent="F71LygZBP5IlNCUUIRIO-381">
          <mxGeometry x="8" y="97.5" width="15" height="15" as="geometry" />
        </mxCell>
        <mxCell id="F71LygZBP5IlNCUUIRIO-388" style="edgeStyle=none;curved=1;rounded=0;orthogonalLoop=1;jettySize=auto;html=1;exitX=1;exitY=0.5;exitDx=0;exitDy=0;entryX=0.843;entryY=0.006;entryDx=0;entryDy=0;entryPerimeter=0;fontSize=12;startSize=8;endSize=8;" edge="1" parent="1" source="F71LygZBP5IlNCUUIRIO-229" target="F71LygZBP5IlNCUUIRIO-194">
          <mxGeometry relative="1" as="geometry" />
        </mxCell>
        <mxCell id="F71LygZBP5IlNCUUIRIO-392" style="edgeStyle=none;curved=1;rounded=0;orthogonalLoop=1;jettySize=auto;html=1;exitX=1;exitY=0.25;exitDx=0;exitDy=0;entryX=0.995;entryY=0.021;entryDx=0;entryDy=0;entryPerimeter=0;fontSize=12;startSize=8;endSize=8;" edge="1" parent="1" source="F71LygZBP5IlNCUUIRIO-229" target="F71LygZBP5IlNCUUIRIO-86">
          <mxGeometry relative="1" as="geometry">
            <Array as="points">
              <mxPoint x="789" y="683" />
            </Array>
          </mxGeometry>
        </mxCell>
      </root>
    </mxGraphModel>
  </diagram>
</mxfile>
